<?xml version="1.0" encoding="UTF-8" standalone="no"?>
<!-- Created with Inkscape (http://www.inkscape.org/) -->

<svg
   xmlns:dc="http://purl.org/dc/elements/1.1/"
   xmlns:cc="http://creativecommons.org/ns#"
   xmlns:rdf="http://www.w3.org/1999/02/22-rdf-syntax-ns#"
   xmlns:svg="http://www.w3.org/2000/svg"
   xmlns="http://www.w3.org/2000/svg"
   xmlns:sodipodi="http://sodipodi.sourceforge.net/DTD/sodipodi-0.dtd"
   xmlns:inkscape="http://www.inkscape.org/namespaces/inkscape"
   width="286.60764"
   height="56.607601"
   viewBox="0 0 75.119861 14.977428"
   version="1.1"
   id="svg8"
   inkscape:version="0.92.3 (2405546, 2018-03-11)"
   sodipodi:docname="logo.svg">
  <defs
     id="defs2" />
  <sodipodi:namedview
     id="base"
     pagecolor="#ffffff"
     bordercolor="#666666"
     borderopacity="1.0"
     inkscape:pageopacity="0.0"
     inkscape:pageshadow="2"
     inkscape:zoom="2.5557588"
     inkscape:cx="116.74027"
     inkscape:cy="62.365174"
     inkscape:document-units="mm"
     inkscape:current-layer="text1372"
     showgrid="true"
     units="px"
     viewbox-width="52.42"
     fit-margin-top="5"
     fit-margin-bottom="5"
     fit-margin-left="5"
     fit-margin-right="5"
     inkscape:window-width="3840"
     inkscape:window-height="2107"
     inkscape:window-x="0"
     inkscape:window-y="25"
     inkscape:window-maximized="1">
    <inkscape:grid
       type="xygrid"
       id="grid1366"
       originx="-0.035324237"
       originy="-11.693573" />
  </sodipodi:namedview>
  <metadata
     id="metadata5">
    <rdf:RDF>
      <cc:Work
         rdf:about="">
        <dc:format>image/svg+xml</dc:format>
        <dc:type
           rdf:resource="http://purl.org/dc/dcmitype/StillImage" />
        <dc:title></dc:title>
      </cc:Work>
    </rdf:RDF>
  </metadata>
  <g
     inkscape:label="Layer 1"
     inkscape:groupmode="layer"
     id="layer1"
     transform="translate(-0.03565893,-270.329)">
    <rect
       style="opacity:1;fill:none;fill-opacity:1;stroke:#020202;stroke-width:1.0583334;stroke-linecap:round;stroke-linejoin:round;stroke-miterlimit:4;stroke-dasharray:none;stroke-opacity:1"
       id="rect1368"
       width="72.760422"
       height="11.906246"
       x="0.96704495"
       y="271.86459" />
    <g
       aria-label="HUGOFACE"
       style="font-style:normal;font-variant:normal;font-weight:normal;font-stretch:normal;font-size:5.64444447px;line-height:1.25;font-family:'Fredoka One';-inkscape-font-specification:'Fredoka One';letter-spacing:0px;word-spacing:0px;fill:#000000;fill-opacity:1;stroke:none;stroke-width:0.26458332"
       id="text1372">
      <path
         d="m 8.1509809,273.57622 q 0.1016,-0.1905 0.3429,-0.2667 0.2413,-0.0762 0.6096,-0.0762 0.3683,0 0.5842,0.0635 0.2159,0.0635 0.3302001,0.1524 0.1143,0.0889 0.1778,0.254 0.0635,0.2159 0.0635,0.6604 v 7.0485 q 0,0.2921 -0.0254,0.4445 -0.0127,0.1397 -0.1143,0.3302 -0.1778001,0.3429 -0.9906001,0.3429 -0.889,0 -1.0414,-0.4699 -0.0762,-0.2159 -0.0762,-0.6604 v -2.5781 H 4.645781 v 2.5908 q 0,0.2921 -0.0254,0.4445 -0.0127,0.1397 -0.1143,0.3302 -0.1778,0.3429 -0.9906,0.3429 -0.889,0 -1.0414,-0.4699 -0.0762,-0.2159 -0.0762,-0.6604 v -7.0485 q 0,-0.2921 0.0127,-0.4318 0.0254,-0.1524 0.127,-0.3429 0.1778,-0.3429 0.9906,-0.3429 0.889,0 1.0541,0.4699 0.0635,0.2159 0.0635,0.6604 v 2.5908 h 3.3654999 v -2.6035 q 0,-0.2921 0.0127,-0.4318 0.0254,-0.1524 0.127,-0.3429 z"
         style="font-size:12.69999981px;stroke-width:0.26458332"
         id="path824" />
      <path
         d="m 17.361259,273.57622 q 0.127,-0.2032 0.3683,-0.2794 0.2413,-0.0762 0.5969,-0.0762 0.3683,0 0.5842,0.0635 0.2159,0.0635 0.3302,0.1524 0.1143,0.0889 0.1651,0.2667 0.0762,0.2159 0.0762,0.6604 v 3.8354 q 0,1.6764 -1.0414,3.048 -0.508,0.6477 -1.3081,1.0541 -0.8001,0.3937 -1.778,0.3937 -0.9652,0 -1.7653,-0.4064 -0.7874,-0.4064 -1.2827,-1.0668 -1.0287,-1.3462 -1.0287,-3.048 v -3.8227 q 0,-0.3048 0.0127,-0.4445 0.0254,-0.1524 0.127,-0.3429 0.1016,-0.1905 0.3429,-0.2667 0.2413,-0.0762 0.6477,-0.0762 0.4064,0 0.6477,0.0762 0.2413,0.0762 0.3302,0.2667 0.1524,0.2921 0.1524,0.8001 v 3.81 q 0,0.7747 0.381,1.4732 0.1905,0.3556 0.5715,0.5715 0.381,0.2159 0.9017,0.2159 0.9271,0 1.3843,-0.6858 0.4572,-0.6858 0.4572,-1.5875 v -3.8862 q 0,-0.4953 0.127,-0.6985 z"
         style="font-size:12.69999981px;stroke-width:0.26458332"
         id="path826" />
      <path
         d="m 25.356703,276.92902 h 2.2352 q 0.6858,0.0254 0.8382,0.3556 0.127,0.2413 0.127,0.7112 v 2.794 q 0,0.4064 -0.3556,0.7747 -1.0668,1.1049 -3.2004,1.1049 -1.8923,0 -3.2893,-1.4224 -1.397,-1.4351 -1.397,-3.4544 0,-2.0193 1.4224,-3.3655 1.4224,-1.3589 3.3528,-1.3589 1.4986,0 2.8321,0.9906 0.3429,0.254 0.3429,0.5715 0,0.3048 -0.2921,0.7112 -0.4953,0.6731 -0.9017,0.6731 -0.2413,0 -0.7747,-0.3429 -0.5334,-0.3556 -1.27,-0.3556 -0.9652,0 -1.7145,0.6858 -0.7493,0.6731 -0.7493,1.778 0,1.0922 0.762,1.8669 0.762,0.762 1.7272,0.762 0.6985,0 1.2573,-0.2286 v -1.3843 h -1.0033 q -0.3937,0 -0.5588,-0.1016 -0.1651,-0.1016 -0.2159,-0.2921 -0.0508,-0.2032 -0.0508,-0.5334 0,-0.3429 0.0508,-0.5461 0.0635,-0.2032 0.2159,-0.2794 0.2286,-0.1143 0.6096,-0.1143 z"
         style="font-size:12.69999981px;stroke-width:0.26458332"
         id="path828" />
      <path
         d="m 33.952617,273.11902 q 1.8796,0 3.2639,1.3589 1.3843,1.3589 1.3843,3.3782 0,2.0066 -1.3208,3.429 -1.3208,1.4097 -3.2512,1.4097 -1.9304,0 -3.2893,-1.397 -1.3462,-1.397 -1.3462,-3.3274 0,-1.0541 0.381,-1.9685 0.381,-0.9271 1.016,-1.5494 0.635,-0.6223 1.4605,-0.9779 0.8255,-0.3556 1.7018,-0.3556 z m -2.3114,4.7879 q 0,1.1303 0.7239,1.8415 0.7366,0.6985 1.6383,0.6985 0.9017,0 1.6256,-0.6858 0.7239,-0.6858 0.7239,-1.8415 0,-1.1557 -0.7366,-1.8542 -0.7239,-0.6985 -1.6256,-0.6985 -0.9017,0 -1.6256,0.7112 -0.7239,0.6985 -0.7239,1.8288 z"
         style="font-size:12.69999981px;stroke-width:0.26458332"
         id="path830" />
      <path
         d="m 45.590779,273.23332 q 0.2921,0 0.4318,0.0254 0.1524,0.0127 0.3302,0.1143 0.1905,0.1016 0.2667,0.3429 0.0762,0.2413 0.0762,0.6477 0,0.4064 -0.0762,0.6477 -0.0762,0.2413 -0.2667,0.3429 -0.1905,0.0889 -0.3429,0.1143 -0.1397,0.0127 -0.4445,0.0127 h -3.8862 v 1.2827 h 2.5019 q 0.3048,0 0.4445,0.0254 0.1524,0.0127 0.3429,0.1143 0.3302,0.1905 0.3302,1.0033 0,0.889 -0.4826,1.0541 -0.2032,0.0635 -0.6477,0.0635 h -2.4892 v 2.4003 q 0,0.3048 -0.0254,0.4445 -0.0127,0.1397 -0.1143,0.3302 -0.1778,0.3429 -0.9906,0.3429 -0.889,0 -1.0414,-0.4826 -0.0762,-0.2032 -0.0762,-0.6477 v -7.0612 q 0,-0.6477 0.2413,-0.8763 0.2413,-0.2413 0.9144,-0.2413 z"
         style="font-size:12.69999981px;stroke-width:0.26458332"
         id="path832" />
      <path
         d="m 52.889705,273.89372 3.429,7.0866 q 0.2159,0.4318 0.2159,0.6477 0,0.4572 -0.7366,0.8255 -0.4318,0.2159 -0.6858,0.2159 -0.2413,0 -0.4064,-0.1143 -0.1524,-0.1143 -0.2286,-0.2413 -0.0635,-0.127 -0.1905,-0.381 l -0.6604,-1.3716 h -3.5179 l -0.6604,1.3716 q -0.127,0.254 -0.2032,0.3683 -0.0635,0.1143 -0.2286,0.2413 -0.1524,0.1143 -0.4064,0.1143 -0.2413,0 -0.6731,-0.2159 -0.7366,-0.3556 -0.7366,-0.8128 0,-0.2159 0.2159,-0.6477 l 3.429,-7.0993 q 0.1397,-0.2921 0.4191,-0.4699 0.2921,-0.1778 0.6096,-0.1778 0.6858,0 1.016,0.6604 z m -1.0287,3.048 -0.8382,1.7399 h 1.6891 z"
         style="font-size:12.69999981px;stroke-width:0.26458332"
         id="path834" />
      <path
         d="m 62.412723,280.10402 0.2286,-0.1651 q 0.4318,-0.254 0.6096,-0.254 0.3937,0 0.8509,0.7112 0.2794,0.4445 0.2794,0.7112 0,0.2667 -0.1778,0.4445 -0.1651,0.1778 -0.3937,0.3175 -0.2286,0.1397 -0.4445,0.2667 -0.2032,0.127 -0.8509,0.3302 -0.6477,0.2032 -1.2573,0.2032 -0.5969,0 -1.2192,-0.1524 -0.6096,-0.1651 -1.27,-0.5334 -0.6477,-0.381 -1.1684,-0.9144 -0.5207,-0.5461 -0.8636,-1.3843 -0.3302,-0.8509 -0.3302,-1.8415 0,-0.9906 0.3302,-1.7907 0.3302,-0.8128 0.8382,-1.3335 0.5207,-0.5334 1.1811,-0.889 1.2446,-0.6858 2.5019,-0.6858 0.5969,0 1.2065,0.1905 0.6223,0.1778 0.9398,0.3683 l 0.3048,0.1778 q 0.2286,0.1397 0.3556,0.2286 0.3302,0.2667 0.3302,0.6096 0,0.3302 -0.2667,0.6985 -0.4953,0.6858 -0.889,0.6858 -0.2286,0 -0.6477,-0.2794 -0.5334,-0.4318 -1.4224,-0.4318 -0.8255,0 -1.6256,0.5715 -0.381,0.2794 -0.635,0.7874 -0.254,0.508 -0.254,1.1557 0,0.635 0.254,1.143 0.254,0.508 0.6477,0.8001 0.7747,0.5588 1.6129,0.5588 0.3937,0 0.7366,-0.1016 0.3556,-0.1016 0.508,-0.2032 z"
         style="font-size:12.69999981px;stroke-width:0.26458332"
         id="path836" />
      <path
         d="m 67.476054,280.29452 h 3.9116 q 0.2921,0 0.4318,0.0254 0.1524,0.0127 0.3429,0.1143 0.3429,0.1778 0.3429,0.9906 0,0.889 -0.4699,1.0414 -0.2159,0.0762 -0.6604,0.0762 h -5.0292 q -0.889,0 -1.0414,-0.4826 -0.0762,-0.2032 -0.0762,-0.6477 v -7.0612 q 0,-0.6477 0.2413,-0.8763 0.2413,-0.2413 0.9144,-0.2413 h 5.0038 q 0.2921,0 0.4318,0.0254 0.1524,0.0127 0.3429,0.1143 0.3429,0.1778 0.3429,0.9906 0,0.889 -0.4699,1.0414 -0.2159,0.0762 -0.6604,0.0762 h -3.8989 v 1.2827 h 2.5146 q 0.2921,0 0.4318,0.0254 0.1524,0.0127 0.3429,0.1143 0.3429,0.1778 0.3429,0.9906 0,0.889 -0.4826,1.0414 -0.2159,0.0762 -0.6604,0.0762 h -2.4892 z"
         style="font-size:12.69999981px;stroke-width:0.26458332"
         id="path838" />
    </g>
  </g>
</svg>
