<?xml version="1.0" encoding="UTF-8" standalone="no"?>
<!-- Created with Inkscape (http://www.inkscape.org/) -->

<svg
   xmlns:dc="http://purl.org/dc/elements/1.1/"
   xmlns:cc="http://creativecommons.org/ns#"
   xmlns:rdf="http://www.w3.org/1999/02/22-rdf-syntax-ns#"
   xmlns:svg="http://www.w3.org/2000/svg"
   xmlns="http://www.w3.org/2000/svg"
   xmlns:sodipodi="http://sodipodi.sourceforge.net/DTD/sodipodi-0.dtd"
   xmlns:inkscape="http://www.inkscape.org/namespaces/inkscape"
   width="54"
   height="58.999985"
   viewBox="0 0 14.1534 15.610413"
   version="1.1"
   id="svg8"
   inkscape:version="0.92.3 (2405546, 2018-03-11)"
   sodipodi:docname="logo_letter.svg">
  <defs
     id="defs2" />
  <sodipodi:namedview
     id="base"
     pagecolor="#ffffff"
     bordercolor="#666666"
     borderopacity="1.0"
     inkscape:pageopacity="0.0"
     inkscape:pageshadow="2"
     inkscape:zoom="19.183545"
     inkscape:cx="24.345256"
     inkscape:cy="13.005156"
     inkscape:document-units="mm"
     inkscape:current-layer="text1372"
     showgrid="true"
     units="px"
     viewbox-width="52.42"
     fit-margin-top="5"
     fit-margin-bottom="5"
     fit-margin-left="5"
     fit-margin-right="5"
     inkscape:window-width="3840"
     inkscape:window-height="2107"
     inkscape:window-x="0"
     inkscape:window-y="25"
     inkscape:window-maximized="1">
    <inkscape:grid
       type="xygrid"
       id="grid1366"
       originx="0.5242"
       originy="-11.377078" />
  </sodipodi:namedview>
  <metadata
     id="metadata5">
    <rdf:RDF>
      <cc:Work
         rdf:about="">
        <dc:format>image/svg+xml</dc:format>
        <dc:type
           rdf:resource="http://purl.org/dc/dcmitype/StillImage" />
        <dc:title></dc:title>
      </cc:Work>
    </rdf:RDF>
  </metadata>
  <g
     inkscape:label="Layer 1"
     inkscape:groupmode="layer"
     id="layer1"
     transform="translate(0.52916667,-270.01251)">
    <rect
       style="opacity:1;fill:none;fill-opacity:1;stroke:#020202;stroke-width:1.07267725;stroke-linecap:round;stroke-linejoin:round;stroke-miterlimit:4;stroke-dasharray:none;stroke-opacity:1"
       id="rect1368"
       width="10.872155"
       height="11.906246"
       x="0.96704495"
       y="271.86459" />
    <g
       aria-label="H"
       style="font-style:normal;font-variant:normal;font-weight:normal;font-stretch:normal;font-size:5.64444447px;line-height:1.25;font-family:'Fredoka One';-inkscape-font-specification:'Fredoka One';letter-spacing:0px;word-spacing:0px;fill:#000000;fill-opacity:1;stroke:none;stroke-width:0.26458332"
       id="text1372">
      <path
         d="m 8.1509809,273.57622 q 0.1016,-0.1905 0.3429,-0.2667 0.2413,-0.0762 0.6096,-0.0762 0.3683,0 0.5842,0.0635 0.2159,0.0635 0.3302001,0.1524 0.1143,0.0889 0.1778,0.254 0.0635,0.2159 0.0635,0.6604 v 7.0485 q 0,0.2921 -0.0254,0.4445 -0.0127,0.1397 -0.1143,0.3302 -0.1778001,0.3429 -0.9906001,0.3429 -0.889,0 -1.0414,-0.4699 -0.0762,-0.2159 -0.0762,-0.6604 v -2.5781 H 4.645781 v 2.5908 q 0,0.2921 -0.0254,0.4445 -0.0127,0.1397 -0.1143,0.3302 -0.1778,0.3429 -0.9906,0.3429 -0.889,0 -1.0414,-0.4699 -0.0762,-0.2159 -0.0762,-0.6604 v -7.0485 q 0,-0.2921 0.0127,-0.4318 0.0254,-0.1524 0.127,-0.3429 0.1778,-0.3429 0.9906,-0.3429 0.889,0 1.0541,0.4699 0.0635,0.2159 0.0635,0.6604 v 2.5908 h 3.3654999 v -2.6035 q 0,-0.2921 0.0127,-0.4318 0.0254,-0.1524 0.127,-0.3429 z"
         style="font-size:12.69999981px;stroke-width:0.26458332"
         id="path1393" />
    </g>
  </g>
</svg>
